<?xml version="1.0" encoding="UTF-8"?>
<!DOCTYPE svg PUBLIC "-//W3C//DTD SVG 1.1//EN" "http://www.w3.org/Graphics/SVG/1.1/DTD/svg11.dtd">
<svg version="1.1" xmlns="http://www.w3.org/2000/svg" xmlns:xlink="http://www.w3.org/1999/xlink" width="24" height="24"  xml:space="preserve" id="sMS_Icon">
    <!-- Generated by PaintCode - http://www.paintcodeapp.com -->
    <g id="sMS_Icon-group" transform="translate(3, 3) scale(1.12, 1.12)" >
        <path id="sMS_Icon-bezier4" stroke="none" fill="rgb(34, 11, 91)" d="M 15.75,8.03 C 15.75,11.79 12.27,14.82 8,14.82 7.01,14.82 6.05,14.65 5.15,14.34 L 5.32,14.34 C 5.21,14.38 5.21,14.38 5.09,14.43 L 5.09,14.43 C 3.81,14.92 3.81,14.92 2.75,15.32 1.89,15.65 1.89,15.65 1.68,15.73 1.5,15.8 1.31,15.64 1.35,15.45 1.48,14.62 1.48,14.62 1.89,12.06 L 1.95,12.27 C 0.86,11.08 0.25,9.6 0.25,8.03 0.25,5.63 1.69,3.44 3.99,2.23 5.19,1.59 6.57,1.25 8,1.25 12.27,1.25 15.75,4.28 15.75,8.03 Z M 15.25,8.03 C 15.25,4.57 12.01,1.75 8,1.75 6.65,1.75 5.35,2.07 4.23,2.67 2.08,3.8 0.75,5.82 0.75,8.03 0.75,9.47 1.31,10.83 2.32,11.94 L 2.38,12.14 C 1.97,14.7 1.97,14.7 1.84,15.53 L 1.5,15.26 C 1.72,15.18 1.72,15.18 2.57,14.85 3.63,14.45 3.63,14.45 4.91,13.96 L 4.91,13.96 C 5.03,13.92 5.03,13.92 5.14,13.87 L 5.31,13.87 C 6.16,14.16 7.07,14.32 8,14.32 12.01,14.32 15.25,11.49 15.25,8.03 Z M 15.25,8.03" />
        <path id="sMS_Icon-oval" stroke="none" fill="rgb(34, 11, 91)" d="M 5.12,8 C 5.12,8.62 4.62,9.12 4,9.12 3.38,9.12 2.88,8.62 2.88,8 2.88,7.38 3.38,6.87 4,6.87 4.62,6.87 5.12,7.38 5.12,8 L 4.88,8 C 4.88,7.52 4.48,7.12 4,7.12 3.52,7.12 3.12,7.52 3.12,8 3.12,8.48 3.52,8.87 4,8.87 4.48,8.87 4.88,8.48 4.88,8 L 5.12,8 Z M 5.12,8" />
        <path id="sMS_Icon-oval2" stroke="none" fill="rgb(34, 11, 91)" d="M 9.12,8 C 9.12,8.62 8.62,9.12 8,9.12 7.38,9.12 6.88,8.62 6.88,8 6.88,7.38 7.38,6.87 8,6.87 8.62,6.87 9.12,7.38 9.12,8 L 8.88,8 C 8.88,7.52 8.48,7.12 8,7.12 7.52,7.12 7.12,7.52 7.12,8 7.12,8.48 7.52,8.87 8,8.87 8.48,8.87 8.88,8.48 8.88,8 L 9.12,8 Z M 9.12,8" />
        <path id="sMS_Icon-oval4" stroke="none" fill="rgb(34, 11, 91)" d="M 13.12,8 C 13.12,8.62 12.62,9.12 12,9.12 11.38,9.12 10.88,8.62 10.88,8 10.88,7.38 11.38,6.87 12,6.87 12.62,6.87 13.12,7.38 13.12,8 L 12.88,8 C 12.88,7.52 12.48,7.12 12,7.12 11.52,7.12 11.12,7.52 11.12,8 11.12,8.48 11.52,8.87 12,8.87 12.48,8.87 12.88,8.48 12.88,8 L 13.12,8 Z M 13.12,8" />
        <circle id="sMS_Icon-oval3" stroke="none" fill="rgb(34, 11, 91)" cx="4" cy="8" r="1" />
        <circle id="sMS_Icon-oval5" stroke="none" fill="rgb(34, 11, 91)" cx="8" cy="8" r="1" />
        <circle id="sMS_Icon-oval6" stroke="none" fill="rgb(34, 11, 91)" cx="12" cy="8" r="1" />
    </g>
</svg>
