<?xml version="1.0" encoding="UTF-8"?>
<!DOCTYPE svg PUBLIC "-//W3C//DTD SVG 1.1//EN" "http://www.w3.org/Graphics/SVG/1.1/DTD/svg11.dtd">
<svg version="1.1" xmlns="http://www.w3.org/2000/svg" xmlns:xlink="http://www.w3.org/1999/xlink" width="24" height="24"  xml:space="preserve" id="web_Icon">
    <!-- Generated by PaintCode - http://www.paintcodeapp.com -->
    <g id="web_Icon-group" clip-path="url(#web_Icon-rectangle)" transform="translate(3, 3) scale(1.12, 1.12)" >
        <clipPath id="web_Icon-rectangle">
            <rect x="0" y="-16" width="16" height="16"  transform="translate(0, 16)" />
        </clipPath>
        <path id="web_Icon-bezier6" stroke="none" fill="rgb(34, 11, 91)" d="M 3.2,-0 C 3.2,-0 6,-0 6,-0 L 10.99,-0 C 11.88,0.89 12.98,2 14,3.01 14,3.18 14,3.34 14,3.5 14,4.82 14,6 14,6 14,7.92 14,9.93 14,11 L 13.52,11 C 13.52,9.44 13.52,5.87 13.52,3.5 L 11.5,3.5 C 10.95,3.5 10.5,3.05 10.5,2.5 10.5,2.5 10.5,1.8 10.5,0.95 10.5,0.8 10.5,0.65 10.5,0.49 10.5,0.49 10.27,0.49 9.9,0.49 8.15,0.49 3.2,0.49 3.2,0.49 2.8,0.49 2.48,0.82 2.48,1.23 2.48,1.23 2.48,8.57 2.48,11 L 2,11 C 2,10.62 2,10.13 2,9.56 2,6.46 2,1.23 2,1.23 2,0.81 2.2,0.44 2.51,0.22 2.71,0.08 2.94,-0 3.2,-0 L 3.2,-0 Z M 3.2,-0" />
        <path id="web_Icon-text" stroke="none" fill="rgb(34, 11, 91)" d="M 3.73,15.5 L 3.27,15.5 3.27,13.65 1.21,13.65 1.21,15.5 0.75,15.5 0.75,11.57 1.21,11.57 1.21,13.24 3.27,13.24 3.27,11.57 3.73,11.57 3.73,15.5 Z M 3.73,15.5" />
        <path id="web_Icon-text2" stroke="none" fill="rgb(34, 11, 91)" d="M 6.45,15.5 L 5.99,15.5 5.99,11.98 4.75,11.98 4.75,11.57 7.69,11.57 7.69,11.98 6.45,11.98 6.45,15.5 Z M 6.45,15.5" />
        <path id="web_Icon-text3" stroke="none" fill="rgb(34, 11, 91)" d="M 10.24,15.5 L 8.91,12.02 8.88,12.02 C 8.91,12.3 8.92,12.62 8.92,13 L 8.92,15.5 8.5,15.5 8.5,11.57 9.19,11.57 10.43,14.81 10.45,14.81 11.71,11.57 12.39,11.57 12.39,15.5 11.93,15.5 11.93,12.97 C 11.93,12.68 11.94,12.37 11.97,12.02 L 11.95,12.02 10.61,15.5 10.24,15.5 Z M 10.24,15.5" />
        <path id="web_Icon-text4" stroke="none" fill="rgb(34, 11, 91)" d="M 13.5,15.5 L 13.5,11.57 13.96,11.57 13.96,15.09 15.69,15.09 15.69,15.5 13.5,15.5 Z M 13.5,15.5" />
    </g>
</svg>
