<?xml version="1.0" encoding="UTF-8"?>
<!DOCTYPE svg PUBLIC "-//W3C//DTD SVG 1.1//EN" "http://www.w3.org/Graphics/SVG/1.1/DTD/svg11.dtd">
<svg version="1.1" xmlns="http://www.w3.org/2000/svg" xmlns:xlink="http://www.w3.org/1999/xlink" width="24" height="24"  xml:space="preserve" id="info_Icon">
    <!-- Generated by PaintCode - http://www.paintcodeapp.com -->
    <g id="info_Icon-group" transform="translate(4.5, 4.5) scale(1.07, 1.07)" >
        <path id="info_Icon-oval" stroke="none" fill="rgb(34, 11, 91)" d="M 15,7.5 C 15,11.64 11.64,15 7.5,15 3.36,15 -0,11.64 0,7.5 0,3.36 3.36,-0 7.5,-0 11.64,0 15,3.36 15,7.5 L 14,7.5 C 14,3.91 11.09,1 7.5,1 3.91,1 1,3.91 1,7.5 1,11.09 3.91,14 7.5,14 11.09,14 14,11.09 14,7.5 L 15,7.5 Z M 15,7.5" />
        <circle id="info_Icon-oval2" stroke="none" fill="rgb(34, 11, 91)" cx="7.5" cy="4.5" r="1" />
        <rect id="info_Icon-rectangle" stroke="none" fill="rgb(34, 11, 91)" x="6.75" y="6.5" width="1.5" height="5.5" rx="0.75" />
    </g>
</svg>
