<?xml version="1.0" encoding="UTF-8"?>
<!DOCTYPE svg PUBLIC "-//W3C//DTD SVG 1.1//EN" "http://www.w3.org/Graphics/SVG/1.1/DTD/svg11.dtd">
<svg version="1.1" xmlns="http://www.w3.org/2000/svg" xmlns:xlink="http://www.w3.org/1999/xlink" width="24" height="24"  xml:space="preserve" id="mail_Icon">
    <!-- Generated by PaintCode - http://www.paintcodeapp.com -->
    <g id="mail_Icon-group" transform="translate(3, 3) scale(1.12, 1.12)" >
        <path id="mail_Icon-bezier2" stroke="none" fill="rgb(34, 11, 91)" d="M 0,5" />
        <path id="mail_Icon-bezier" stroke="none" fill="rgb(34, 11, 91)" d="M 14.79,2.96 L 1.21,2.96 C 0.81,2.96 0.48,3.27 0.48,3.65 0.48,3.65 0.48,4.12 0.48,4.86 0.54,4.88 0.59,4.92 0.66,4.95 0.89,5.09 1.15,5.24 1.44,5.41 2.25,5.87 3.08,6.34 3.87,6.78 4.01,6.86 4.15,6.93 4.29,7.01 6.27,8.09 7.67,8.75 8,8.75 8.33,8.75 9.73,8.09 11.71,7.01 11.85,6.93 11.99,6.86 12.13,6.78 12.92,6.34 13.75,5.87 14.56,5.41 14.85,5.24 15.11,5.09 15.34,4.95 15.41,4.92 15.47,4.88 15.52,4.85 15.52,4.12 15.52,3.65 15.52,3.65 15.52,3.27 15.19,2.96 14.79,2.96 Z M 0.48,5.43 C 0.48,7.08 0.48,9.51 0.48,11.13 1.5,10.6 5.02,8.75 5.77,8.35 5.27,8.1 4.7,7.8 4.07,7.45 3.93,7.38 3.79,7.3 3.64,7.22 2.85,6.78 2.02,6.31 1.2,5.84 0.94,5.69 0.7,5.56 0.48,5.43 Z M 15.52,5.43 C 15.3,5.56 15.06,5.69 14.8,5.84 13.98,6.31 13.15,6.78 12.36,7.22 12.21,7.3 12.07,7.38 11.93,7.45 11.25,7.83 10.64,8.15 10.12,8.41 11.09,8.9 14.53,10.64 15.52,11.14 15.52,9.52 15.52,7.08 15.52,5.43 Z M 6.32,8.62 C 6.26,8.65 6.12,8.72 6.12,8.72 6.12,8.72 4.56,9.55 3.07,10.33 2.39,10.69 1.71,11.05 1.22,11.31 0.86,11.49 0.6,11.63 0.48,11.69 0.48,12.09 0.48,12.4 0.48,12.6 0.48,12.76 0.48,12.85 0.48,12.85 0.48,13.23 0.81,13.54 1.21,13.54 L 14.79,13.54 C 15.19,13.54 15.52,13.23 15.52,12.85 15.52,12.85 15.52,12.4 15.52,11.7 14.98,11.43 9.64,8.72 9.64,8.72 8.78,9.05 8.25,9.25 8,9.25 7.73,9.25 7.16,9.03 6.32,8.62 Z M 16,3.65 C 16,3.65 16,8.79 16,11.39 16,12.26 16,12.85 16,12.85 16,13.49 15.46,14 14.79,14 L 1.21,14 C 0.54,14 -0,13.49 0,12.85 0,12.85 0,12.26 0,11.39 0,8.79 0,3.65 0,3.65 0,3.47 0.04,3.3 0.12,3.15 0.28,2.83 0.59,2.6 0.97,2.52 1.05,2.51 1.13,2.5 1.21,2.5 L 14.79,2.5 C 15.46,2.5 16,3.01 16,3.65 Z M 16,3.65" />
    </g>
</svg>
